<?xml version="1.0" standalone="no"?>
<!DOCTYPE svg PUBLIC "-//W3C//DTD SVG 20010904//EN"
 "http://www.w3.org/TR/2001/REC-SVG-20010904/DTD/svg10.dtd">
<svg version="1.0" xmlns="http://www.w3.org/2000/svg"
 width="70.000000pt" height="70.000000pt" viewBox="0 0 70.000000 70.000000"
 preserveAspectRatio="xMidYMid meet">
<metadata>
Created by potrace 1.11, written by Peter Selinger 2001-2013
</metadata>
<g transform="translate(0.000000,70.000000) scale(0.100000,-0.100000)"
fill="#000000" stroke="none">
<path d="M392 555 c-52 -30 -94 -72 -128 -132 -22 -36 -29 -41 -44 -33 -28 15
-36 74 -15 108 10 15 24 31 32 35 28 17 1 26 -34 12 -48 -20 -93 -71 -93 -106
0 -30 54 -85 93 -94 22 -6 23 -10 17 -56 -16 -125 116 -208 234 -147 26 13 86
69 86 80 0 15 -27 8 -46 -13 -48 -53 -125 -65 -162 -26 -22 23 -37 113 -23
135 3 5 26 13 51 17 146 23 244 154 166 221 -35 31 -79 31 -134 -1z m103 -25
c12 -20 -7 -69 -41 -104 -34 -35 -107 -66 -121 -52 -13 12 39 96 81 132 40 34
69 43 81 24z"/>
</g>
</svg>
